<svg xmlns="http://www.w3.org/2000/svg" xmlns:xlink="http://www.w3.org/1999/xlink" version="1.1" width="612" height="792" viewBox="0 0 612 792">
<defs>
<clipPath id="clip_0">
<path transform="matrix(1,0,0,-1,0,792)" d="M0 792H612V0H0Z"/>
</clipPath>
</defs>
<g id="layer_1" data-name="Layer 1">
<text fill="#4d4e49" xml:space="preserve" transform="matrix(1.566164 0 -0 .63850268 0 792)" font-size="46.984926" font-family="Teko"><tspan y="-594.7034" x="98.8376 115.79916 122.61197 129.42478 147.88986 154.70267 161.51549 175.65795 182.47077 189.28357 207.93659 214.7494 221.56221 236.12754 242.94036 249.75316 259.62 266.4328 273.24565 291.7107 298.52354 305.33634 324.60017 331.41297 338.22578">S  O  L  U  T  I  O  N  S</tspan></text>
<g clip-path="url(#clip_0)">
<path transform="matrix(1,0,0,-1,154.7955,339.6364)" d="M0 0C0 0 .205 3.136 3.545 4.023H60.068C60.068 4.023 69 3.818 70.909-6.205 70.909-6.205 71.864-12.136 67.841-15.886 67.841-15.886 71.72-18.409 71.008-26.045 71.008-26.045 68.932-34.5 60.818-35.182H4.009C4.009-35.182 .614-35.045 0-31.364V-26.659L59.659-26.591C59.659-26.591 62.011-26.182 62.011-22.909 62.011-22.909 62.045-20.693 59.216-20.011H8.83L0-20.045V-11.318H60.068C60.068-11.318 62.216-11.08 62.216-8.114 62.216-8.114 62.42-5.557 59.83-4.977L0-5.011Z" fill="#2378b4"/>
<path transform="matrix(1,0,0,-1,0,792)" d="M163.727 424.852H154.795V447.897H163.727Z" fill="#2378b4"/>
<path transform="matrix(1,0,0,-1,234.142,338.9886)" d="M0 0C0 0 .426 3.375 4.551 3.324 4.551 3.324 8.54 3.375 8.949 0L8.915-24.17C8.915-24.17 9.017-26.761 11.727-26.881H66.528C66.528-26.881 70.517-27.205 70.449-31.244 70.449-31.244 70.722-34.994 67.108-35.83H10.67C10.67-35.83 2.063-35.199 0-25.432Z" fill="#2378b4"/>
<path transform="matrix(1,0,0,-1,312.9261,340.1307)" d="M0 0C0 0 .767 4.382 4.96 4.466 4.96 4.466 8.642 4.551 9.46 .511V-17.693C9.46-17.693 9.46-24.545 17.233-25.722H57.58C57.58-25.722 63.972-24.955 64.432-18.102V.614C64.432 .614 64.841 3.717 69.034 4.467 69.034 4.467 72.92 5.011 73.79 .869V-17.795C73.79-17.795 73.227-32.727 58.653-34.67H13.5C13.5-34.67 2.557-33.085 0-17.386Z" fill="#2378b4"/>
<path transform="matrix(1,0,0,-1,395.7671,342.3807)" d="M0 0C0 0-1.687 3.119 .767 5.676 .767 5.676 2.557 7.722 6.545 6.136L29.455-23.676C29.455-23.676 31.602-26.284 33.494-24.341L57.222 6.085C57.222 6.085 60.29 7.977 62.949 5.676 62.949 5.676 65.199 3.886 63.92 .665L39.835-31.142C39.835-31.142 32.881-38.506 23.216-30.784Z" fill="#2378b4"/>
<path transform="matrix(1,0,0,-1,468.3807,339.6193)" d="M0 0C0 0 .46 4.02 4.807 4.056 4.807 4.056 8.182 4.193 9.205 0L9.153-32.369C9.153-32.369 8.386-35.284 4.602-35.54 4.602-35.54 .665-35.489 0-31.96Z" fill="#2378b4"/>
<path transform="matrix(1,0,0,-1,486.2954,371.3409)" d="M0 0 .034 20.489C.034 20.489 1.5 33.51 14.625 35.778L55.33 35.659C55.33 35.659 67.739 34.739 69.784 19.193V0C69.784 0 69.17-3.409 65.438-3.716 65.438-3.716 61.858-4.176 60.886-.034V17.812C60.886 17.812 60.58 25.739 52.244 26.812L16.602 26.761C16.602 26.761 9.29 25.636 8.727 17.761L8.676-.085C8.676-.085 7.96-3.593 4.125-3.731 4.125-3.731 .477-4.006 0 0" fill="#2378b4"/>
<path transform="matrix(1,0,0,-1,134,371.4685)" d="M0 0C0-19.774-.412-35.804-.92-35.804-1.429-35.804-1.841-19.774-1.841 0-1.841 19.774-1.429 35.804-.92 35.804-.412 35.804 0 19.774 0 0" fill="#2378b4"/>
<path transform="matrix(1,0,0,-1,96.5,355.1136)" d="M0 0C0 0 .545 11.659-12.545 12.818-12.545 12.818-22.432 12.955-25.227 3.273L-26.114-2.932C-26.114-2.932-23.792-9.682-13.055-11.864-13.055-11.864 11.455-14.932 9.273-33.886L5.591-45.205-5.864-50.659-10.364-48.341C-10.364-48.341 7.636-44.386 .409-27.205 .409-27.205-1.726-21.818-14.84-18.92-14.84-18.92-29.182-16.841-30.682-6.205-30.682-6.205-33.136-5.795-33.273 1.023L-32.455 5.932C-32.455 5.932-27.135 20.795-11.931 19.5-11.931 19.5 7.364 19.364 7.909-.102Z" fill="#1c4f6d"/>
<path transform="matrix(1,0,0,-1,57.3636,336.7046)" d="M0 0H7.295V-27.682L8.523-27C8.523-27 6.068-20.455 14.455-13.841 14.455-13.841 12.068-23.114 18.136-27.136 18.136-27.136 9.477-31.227 7.227-40.977 7.227-40.977 5.318-51.409 10.364-57.205 10.364-57.205 15.955-66.477 26.386-66.682 26.386-66.682 42.409-69.136 48.545-52.091 48.545-52.091 50.591-71.523 27.682-73.977 27.682-73.977 14.318-75.341 7.364-63.75L7.295-72.205 0-72.136Z" fill="#2378b4"/>
</g>
<g id="layer_1" data-name="Layer 2">
</g>
</g>
</svg>
